<svg width="26" height="26" viewBox="0 0 26 26" fill="none" xmlns="http://www.w3.org/2000/svg">
<circle cx="13" cy="13" r="13" fill="#FF6800"/>
<path d="M19.8345 8.47552L8.50116 19.7259C8.324 19.9015 8.08384 20.0001 7.83347 20C7.5831 19.9999 7.34301 19.9011 7.16597 19.7254C6.98893 19.5497 6.88944 19.3113 6.88935 19.0628C6.88926 18.8143 6.98859 18.5759 7.1655 18.4L18.4988 7.14965C18.676 6.97403 18.9162 6.87543 19.1665 6.87551C19.4169 6.8756 19.657 6.97437 19.834 7.15011C20.0111 7.32585 20.1106 7.56419 20.1107 7.81272C20.1107 8.06126 20.0114 8.29966 19.8345 8.47552ZM8.14815 12.1877C8.14815 12.4364 8.24765 12.6748 8.42477 12.8507C8.60189 13.0265 8.84211 13.1252 9.09259 13.1252C9.34307 13.1252 9.5833 13.0265 9.76042 12.8507C9.93753 12.6748 10.037 12.4364 10.037 12.1877V10.0002H12.2407C12.4912 10.0002 12.7314 9.90138 12.9086 9.72556C13.0857 9.54974 13.1852 9.31127 13.1852 9.06262C13.1852 8.81398 13.0857 8.57551 12.9086 8.39969C12.7314 8.22387 12.4912 8.1251 12.2407 8.1251H10.037V5.93753C10.037 5.68888 9.93753 5.45042 9.76042 5.2746C9.5833 5.09878 9.34307 5 9.09259 5C8.84211 5 8.60189 5.09878 8.42477 5.2746C8.24765 5.45042 8.14815 5.68888 8.14815 5.93753V8.1251H5.94444C5.69396 8.1251 5.45374 8.22387 5.27662 8.39969C5.0995 8.57551 5 8.81398 5 9.06262C5 9.31127 5.0995 9.54974 5.27662 9.72556C5.45374 9.90138 5.69396 10.0002 5.94444 10.0002H8.14815V12.1877ZM21.0556 16.8754H14.7593C14.5088 16.8754 14.2686 16.9741 14.0914 17.15C13.9143 17.3258 13.8148 17.5642 13.8148 17.8129C13.8148 18.0615 13.9143 18.3 14.0914 18.4758C14.2686 18.6516 14.5088 18.7504 14.7593 18.7504H21.0556C21.306 18.7504 21.5463 18.6516 21.7234 18.4758C21.9005 18.3 22 18.0615 22 17.8129C22 17.5642 21.9005 17.3258 21.7234 17.15C21.5463 16.9741 21.306 16.8754 21.0556 16.8754Z" fill="white"/>
</svg>
