<svg width="26" height="26" viewBox="0 0 26 26" fill="none" xmlns="http://www.w3.org/2000/svg">
<circle cx="13" cy="13" r="13" fill="#FF6800"/>
<path d="M15.9698 18.7979L7.48453 10.3127C6.70388 9.53201 6.70388 8.26487 7.48453 7.48422C8.26517 6.70358 9.53231 6.70358 10.313 7.48422L18.7982 15.9695C19.5789 16.7502 19.5789 18.0173 18.7982 18.7979C18.0176 19.5786 16.7505 19.5786 15.9698 18.7979Z" fill="white"/>
<path d="M15.8995 7.41398L7.41421 15.8993C6.63357 16.6799 6.63357 17.947 7.41421 18.7277C8.19486 19.5083 9.46199 19.5083 10.2426 18.7277L18.7279 10.2424C19.5086 9.46176 19.5086 8.19463 18.7279 7.41398C17.9473 6.63334 16.6801 6.63334 15.8995 7.41398Z" fill="white"/>
</svg>
