<svg width="26" height="26" viewBox="0 0 26 26" fill="none" xmlns="http://www.w3.org/2000/svg">
<circle cx="13" cy="13" r="13" fill="#FF6800"/>
<path d="M13 9.5C14.2426 9.5 15.25 8.49264 15.25 7.25C15.25 6.00736 14.2426 5 13 5C11.7574 5 10.75 6.00736 10.75 7.25C10.75 8.49264 11.7574 9.5 13 9.5Z" fill="white"/>
<path d="M13 21.5C14.2426 21.5 15.25 20.4926 15.25 19.25C15.25 18.0074 14.2426 17 13 17C11.7574 17 10.75 18.0074 10.75 19.25C10.75 20.4926 11.7574 21.5 13 21.5Z" fill="white"/>
<path d="M19 11.25H7C5.896 11.25 5 12.146 5 13.25C5 14.354 5.896 15.25 7 15.25H19C20.104 15.25 21 14.354 21 13.25C21 12.146 20.104 11.25 19 11.25Z" fill="white"/>
</svg>
