<svg width="512" height="512" viewBox="0 0 512 512" fill="none" xmlns="http://www.w3.org/2000/svg">
<circle cx="256" cy="256" r="256" fill="#FF6800"/>
<path d="M136.694 141.184C131.992 141.817 126.308 143.603 122.067 145.764C119.47 147.089 119.47 147.118 119.384 148.299C119.297 149.365 119.037 149.768 117.075 151.727C109.949 158.901 99.7357 179.786 92.4074 202.084C86.8391 219.052 83.8962 231.353 79.6551 255.235C74.9811 281.652 72.7307 296.834 71.3747 311.555C70.8265 317.662 70.8842 330.914 71.519 335.033C72.7019 342.984 74.433 347.018 78.9915 352.75C85.1946 360.5 89.4646 364.331 94.6578 366.866C99.6203 369.286 105.477 370.64 112.402 370.957C127.173 371.591 138.397 365.195 144.109 352.866C146.677 347.277 149.678 337.972 154.525 320.284C159.141 303.46 160.901 298.13 162.978 294.932C164.248 292.945 164.68 292.599 168.806 289.977C171.662 288.134 172.413 287.788 173.105 287.903C173.567 287.99 175.442 288.912 177.288 289.949C185.367 294.443 190.647 295.653 199.504 294.99C209.112 294.299 213.237 292.743 218.604 287.874L221.229 285.483H255.505H289.78L292.406 287.874C297.772 292.743 301.898 294.299 311.506 294.99C320.363 295.653 325.297 294.529 333.433 290.064C335.452 288.969 337.472 287.99 337.905 287.903C338.597 287.788 339.347 288.134 342.204 289.977C346.56 292.772 347.253 293.434 348.666 296.142C350.772 300.176 352.157 304.439 356.802 321.349C361.476 338.404 364.91 349.034 367.304 353.759C371.632 362.286 379.133 367.846 389.376 370.064C392.838 370.813 402.849 370.842 406.398 370.093C414.563 368.393 419.67 365.541 426.19 359.088C435.134 350.244 437.991 345.087 439.491 335.033C440.097 330.971 440.183 317.345 439.635 311.555C438.164 296.2 436.029 281.681 431.326 255.091C427.229 231.843 424.113 218.879 418.602 202.084C411.072 179.181 400.08 156.999 393.242 151.007C391.828 149.768 391.684 149.538 391.684 148.443C391.684 147.262 391.655 147.204 389.809 146.196C386.231 144.18 380.98 142.365 375.96 141.414C373.334 140.895 364.131 140.895 360.669 141.414C356.831 141.961 352.071 143.027 349.128 143.949L346.531 144.785L346.387 147.464L346.243 150.172L342.492 151.324C338.799 152.448 338.655 152.476 333.288 152.62C330.144 152.678 325.701 152.592 322.902 152.39C320.19 152.188 317.536 151.987 317.016 151.958C316.497 151.929 315.776 151.612 315.429 151.295C315.083 150.978 314.42 150.575 313.987 150.402C312.804 149.941 198.004 149.97 197.138 150.402C196.792 150.575 196.244 150.978 195.898 151.266C195.003 152.102 186.204 152.764 178.327 152.592C173.105 152.476 171.98 152.361 170.249 151.814C169.152 151.468 167.479 150.978 166.585 150.719L164.94 150.258L164.854 147.521L164.767 144.785L162.228 143.978C159.17 142.998 155.563 142.192 151.726 141.587C148.206 141.04 139.493 140.809 136.694 141.184Z" fill="white"/>
</svg>
